<svg xmlns="http://www.w3.org/2000/svg">
<!-- Comparison icons, shared by devices/ring/compare-materials and
     testing/compare (2026-09-23). Drawn on a 40 grid. Stroke, width, caps and
     joins are NOT set here: they are inherited from the <svg class="cmp-ic">
     that uses a symbol, so both pages set them once in their sheet. The pale
     fill and the second ink are the custom properties ic a and ic b, inherited too,
     written as inline styles because a <use> clone sits in a shadow tree no
     page selector or sprite <style> reaches.
     Each icon names the VALUE it sits over, not the row, the way
     apple.com/iphone/compare draws a different picture for each answer. -->

<!-- ============ RINGS AND BANDS ============ -->
<symbol id="ring-ceramic" viewBox="0 0 40 40">
  <path fill-rule="evenodd" d="M20 8a12 12 0 1 0 0 24a12 12 0 1 0 0-24zm0 3.5a8.5 8.5 0 1 1 0 17a8.5 8.5 0 1 1 0-17z" style="fill:var(--ic-a,#dce3f3);stroke:none"/>
  <circle cx="20" cy="20" r="12"/><circle cx="20" cy="20" r="8.5"/>
  <path d="M13.2 13.6a9 9 0 0 1 4-2.6"/><path d="M33 3.5v5M30.5 6h5"/>
</symbol>
<symbol id="ring-titanium" viewBox="0 0 40 40">
  <path fill-rule="evenodd" d="M20 8a12 12 0 1 0 0 24a12 12 0 1 0 0-24zm0 3.5a8.5 8.5 0 1 1 0 17a8.5 8.5 0 1 1 0-17z" style="fill:var(--ic-a,#dce3f3);stroke:none"/>
  <circle cx="20" cy="20" r="12"/><circle cx="20" cy="20" r="8.5"/>
  <path d="M11.5 20.7l-3.4.3M12.6 24.3l-3 1.7M15.1 27l-2 2.8M24.9 13l2-2.8M27.4 15.7l3-1.7M28.5 19.3l3.4-.3"/>
</symbol>
<symbol id="ring-matte" viewBox="0 0 40 40">
  <path fill-rule="evenodd" d="M20 8a12 12 0 1 0 0 24a12 12 0 1 0 0-24zm0 3.5a8.5 8.5 0 1 1 0 17a8.5 8.5 0 1 1 0-17z" style="fill:var(--ic-a,#dce3f3);stroke:none"/>
  <circle cx="20" cy="20" r="12"/><circle cx="20" cy="20" r="8.5"/>
  <circle cx="28.9" cy="25.1" r=".95" style="fill:currentColor;stroke:none"/><circle cx="20" cy="30.3" r=".95" style="fill:currentColor;stroke:none"/><circle cx="11.1" cy="25.1" r=".95" style="fill:currentColor;stroke:none"/>
  <circle cx="11.1" cy="14.9" r=".95" style="fill:currentColor;stroke:none"/><circle cx="20" cy="9.7" r=".95" style="fill:currentColor;stroke:none"/><circle cx="28.9" cy="14.9" r=".95" style="fill:currentColor;stroke:none"/>
</symbol>
<symbol id="band-core" viewBox="0 0 40 40">
  <rect x="10" y="12" width="20" height="16" rx="5" style="fill:var(--ic-a,#dce3f3);stroke:none"/>
  <rect x="10" y="12" width="20" height="16" rx="5"/>
  <path d="M14.5 12V5M25.5 12V5M14.5 28v7M25.5 28v7"/><circle cx="20" cy="20" r="1.4" style="fill:currentColor;stroke:none"/>
</symbol>
<symbol id="glaze" viewBox="0 0 40 40">
  <path d="M20 5.5c1 5.5 8 8 8 16a8 8 0 0 1-16 0c0-4 2.2-6.2 3.8-7.7.3 2.6 1.5 4.2 3.2 5C19 14 18.4 9.8 20 5.5z" style="fill:var(--ic-a,#dce3f3);stroke:none"/>
  <path d="M20 5.5c1 5.5 8 8 8 16a8 8 0 0 1-16 0c0-4 2.2-6.2 3.8-7.7.3 2.6 1.5 4.2 3.2 5C19 14 18.4 9.8 20 5.5z"/>
  <path d="M17 24.5a3.2 3.2 0 0 0 3 3" style="stroke:var(--ic-b,#7185bd)"/>
</symbol>
<symbol id="shield" viewBox="0 0 40 40">
  <path d="M20 6l11 4.2v8.3c0 7-4.8 12.2-11 14.5C13.8 30.7 9 25.5 9 18.5v-8.3z" style="fill:var(--ic-a,#dce3f3);stroke:none"/>
  <path d="M20 6l11 4.2v8.3c0 7-4.8 12.2-11 14.5C13.8 30.7 9 25.5 9 18.5v-8.3z"/>
  <path d="M15 19.5l3.5 3.5 6.5-7"/>
</symbol>
<symbol id="no-print" viewBox="0 0 40 40">
  <circle cx="20" cy="20" r="13" style="fill:var(--ic-a,#dce3f3);stroke:none"/>
  <path d="M13 27c-1.4-2.3-2-4.6-2-7.5a9 9 0 0 1 16.2-5.4M29 19.5c0 3-.3 5.6-1 8"/>
  <path d="M16.6 29c-1.3-2.6-1.9-5.4-1.9-9.5a5.3 5.3 0 0 1 9.4-3.4M25.3 20c0 2.6-.2 4.9-.8 7.2"/>
  <path d="M20 19.5c0 4 .6 7.4 2 10.5"/>
  <path d="M9 9l22 22" style="stroke:var(--ic-b,#7185bd)"/>
</symbol>
<symbol id="strap-sport" viewBox="0 0 40 40">
  <rect x="13" y="4" width="14" height="32" rx="7" style="fill:var(--ic-a,#dce3f3);stroke:none"/>
  <rect x="13" y="4" width="14" height="32" rx="7"/>
  <circle cx="20" cy="11" r="1.3" style="fill:currentColor;stroke:none"/><circle cx="20" cy="16.3" r="1.3" style="fill:currentColor;stroke:none"/><circle cx="20" cy="21.6" r="1.3" style="fill:currentColor;stroke:none"/>
  <circle cx="20" cy="26.9" r="1.3" style="fill:currentColor;stroke:none"/><circle cx="20" cy="32" r="1.1" style="fill:currentColor;stroke:none"/>
</symbol>
<symbol id="strap-woven" viewBox="0 0 40 40">
  <rect x="13" y="4" width="14" height="32" rx="7" style="fill:var(--ic-a,#dce3f3);stroke:none"/>
  <rect x="13" y="4" width="14" height="32" rx="7"/>
  <path d="M13.5 12.5l13 5.5M13.5 19l13 5.5M13.5 25.5l13 5.5"/>
  <path d="M26.5 12.5l-13 5.5M26.5 19l-13 5.5M26.5 25.5l-13 5.5" style="stroke:var(--ic-b,#7185bd)"/>
</symbol>
<symbol id="feather" viewBox="0 0 40 40">
  <path d="M31 6c-10 1-17 8-18 19 7 0 14-5 18-19z" style="fill:var(--ic-a,#dce3f3);stroke:none"/>
  <path d="M31 6c-10 1-17 8-18 19 7 0 14-5 18-19z"/>
  <path d="M13 25l-4.5 9M14 24L25 13"/>
</symbol>
<symbol id="weight" viewBox="0 0 40 40">
  <path d="M13 15h14l2.8 13.2A3 3 0 0 1 26.9 32H13.1a3 3 0 0 1-2.9-3.8z" style="fill:var(--ic-a,#dce3f3);stroke:none"/>
  <path d="M13 15h14l2.8 13.2A3 3 0 0 1 26.9 32H13.1a3 3 0 0 1-2.9-3.8z"/>
  <path d="M15.5 15v-2.5a4.5 4.5 0 0 1 9 0V15"/>
</symbol>
<symbol id="diamond" viewBox="0 0 40 40">
  <path d="M13 8h14l6 8-13 16L7 16z" style="fill:var(--ic-a,#dce3f3);stroke:none"/>
  <path d="M13 8h14l6 8-13 16L7 16z"/>
  <path d="M7 16h26M17 8l-3 8 6 16 6-16-3-8"/>
</symbol>
<symbol id="drop" viewBox="0 0 40 40">
  <path d="M20 6c5 7 9 11.5 9 16.5a9 9 0 0 1-18 0C11 17.5 15 13 20 6z" style="fill:var(--ic-a,#dce3f3);stroke:none"/>
  <path d="M20 6c5 7 9 11.5 9 16.5a9 9 0 0 1-18 0C11 17.5 15 13 20 6z"/>
  <path d="M15.8 23.5a4.2 4.2 0 0 0 4.2 4.2" style="stroke:var(--ic-b,#7185bd)"/>
</symbol>
<symbol id="swim" viewBox="0 0 40 40">
  <circle cx="27" cy="12" r="3.4" style="fill:var(--ic-a,#dce3f3);stroke:none"/><circle cx="27" cy="12" r="3.4"/>
  <path d="M8 22l7.5-6 5 4.2 5.5-2"/>
  <path d="M5 27c2.5 0 2.5 2 5 2s2.5-2 5-2 2.5 2 5 2 2.5-2 5-2 2.5 2 5 2 2.5-2 5-2" style="stroke:var(--ic-b,#7185bd)"/>
  <path d="M5 33c2.5 0 2.5 2 5 2s2.5-2 5-2 2.5 2 5 2 2.5-2 5-2 2.5 2 5 2 2.5-2 5-2"/>
</symbol>
<symbol id="shower" viewBox="0 0 40 40">
  <path d="M9 35V12a5 5 0 0 1 5-5h5a5 5 0 0 1 5 5v1.5"/>
  <path d="M16 13.5h16l-2.2 4.5H18.2z" style="fill:var(--ic-a,#dce3f3);stroke:none"/><path d="M16 13.5h16l-2.2 4.5H18.2z"/>
  <path d="M20 22l-1 3M24 22v3M28 22l1 3M21.5 28.5l-.6 3M26.5 28.5l.6 3" style="stroke:var(--ic-b,#7185bd)"/>
</symbol>
<symbol id="ring-size" viewBox="0 0 40 40">
  <path fill-rule="evenodd" d="M20 5a7.5 7.5 0 1 0 0 15a7.5 7.5 0 1 0 0-15zm0 3a4.5 4.5 0 1 1 0 9a4.5 4.5 0 1 1 0-9z" style="fill:var(--ic-a,#dce3f3);stroke:none"/>
  <circle cx="20" cy="12.5" r="7.5"/><circle cx="20" cy="12.5" r="4.5"/>
  <rect x="5" y="25" width="30" height="9" rx="2"/>
  <path d="M9.5 25v4M14 25v2.5M18.5 25v4M23 25v2.5M27.5 25v4M32 25v2.5" style="stroke:var(--ic-b,#7185bd)"/>
</symbol>
<symbol id="wrist-tape" viewBox="0 0 40 40">
  <path d="M7 15.5c0-3 5.8-5.5 13-5.5s13 2.5 13 5.5v9c0 3-5.8 5.5-13 5.5S7 27.5 7 24.5z" style="fill:var(--ic-a,#dce3f3);stroke:none"/>
  <path d="M7 15.5c0-3 5.8-5.5 13-5.5s13 2.5 13 5.5v9c0 3-5.8 5.5-13 5.5S7 27.5 7 24.5z"/>
  <path d="M7 15.5c0 3 5.8 5.5 13 5.5s13-2.5 13-5.5"/>
  <path d="M11 19.8v3M15.5 20.7v4M20 21v3M24.5 20.7v4M29 19.8v3" style="stroke:var(--ic-b,#7185bd)"/>
</symbol>
<symbol id="parcel" viewBox="0 0 40 40">
  <path d="M7 13.5l13-6.5 13 6.5-13 6.5z" style="fill:var(--ic-a,#dce3f3);stroke:none"/>
  <path d="M7 13.5l13-6.5 13 6.5v13L20 33 7 26.5z"/>
  <path d="M7 13.5L20 20l13-6.5M20 20v13"/><path d="M13.5 10.2l13 6.5v4.8" style="stroke:var(--ic-b,#7185bd)"/>
</symbol>
<symbol id="two-straps" viewBox="0 0 40 40">
  <rect x="8" y="5" width="10" height="30" rx="5"/>
  <rect x="22" y="10" width="10" height="20" rx="5" style="fill:var(--ic-a,#dce3f3);stroke:none"/><rect x="22" y="10" width="10" height="20" rx="5"/>
  <circle cx="13" cy="13" r="1.1" style="fill:currentColor;stroke:none"/><circle cx="13" cy="18" r="1.1" style="fill:currentColor;stroke:none"/><circle cx="13" cy="23" r="1.1" style="fill:currentColor;stroke:none"/><circle cx="13" cy="28" r="1.1" style="fill:currentColor;stroke:none"/>
  <circle cx="27" cy="16" r="1.1" style="fill:currentColor;stroke:none"/><circle cx="27" cy="20" r="1.1" style="fill:currentColor;stroke:none"/><circle cx="27" cy="24" r="1.1" style="fill:currentColor;stroke:none"/>
</symbol>
<symbol id="loop" viewBox="0 0 40 40">
  <circle cx="20" cy="20" r="7" style="fill:var(--ic-a,#dce3f3);stroke:none"/>
  <path d="M20 9a11 11 0 1 1-10.4 7.4"/><path d="M8.2 11.4l1.4 5 5-1.4"/>
  <path d="M16 20h8M21.5 17.5L24 20l-2.5 2.5" style="stroke:var(--ic-b,#7185bd)"/>
</symbol>
<symbol id="charge" viewBox="0 0 40 40">
  <rect x="6" y="12" width="25" height="16" rx="4" style="fill:var(--ic-a,#dce3f3);stroke:none"/>
  <rect x="6" y="12" width="25" height="16" rx="4"/><path d="M34 17.5v5"/>
  <path d="M20 14.5l-4.5 6.5h5l-2 5 6-7.5h-5l1.8-4z"/>
</symbol>
<symbol id="oxygen" viewBox="0 0 40 40">
  <path d="M17 7c4.6 6.3 8.2 10.4 8.2 15a8.2 8.2 0 0 1-16.4 0C8.8 17.4 12.4 13.3 17 7z" style="fill:var(--ic-a,#dce3f3);stroke:none"/>
  <path d="M17 7c4.6 6.3 8.2 10.4 8.2 15a8.2 8.2 0 0 1-16.4 0C8.8 17.4 12.4 13.3 17 7z"/>
  <circle cx="30" cy="11" r="3.2" style="stroke:var(--ic-b,#7185bd)"/><circle cx="31.5" cy="20" r="2" style="stroke:var(--ic-b,#7185bd)"/><circle cx="29" cy="27" r="1.3" style="stroke:var(--ic-b,#7185bd)"/>
</symbol>
<symbol id="gauge" viewBox="0 0 40 40">
  <path d="M8 28a12 12 0 0 1 24 0z" style="fill:var(--ic-a,#dce3f3);stroke:none"/>
  <path d="M8 28a12 12 0 0 1 24 0M5.5 28h29"/>
  <path d="M11.5 19.5l2 1.5M20 16v2.5M28.5 19.5l-2 1.5" style="stroke:var(--ic-b,#7185bd)"/>
  <path d="M20 28l6-7"/><circle cx="20" cy="28" r="2" style="fill:currentColor;stroke:none"/>
</symbol>
<symbol id="sparkle" viewBox="0 0 40 40">
  <path d="M18 6c1 7.5 3 9.5 10.5 10.5C21 17.5 19 19.5 18 27c-1-7.5-3-9.5-10.5-10.5C15 15.5 17 13.5 18 6z" style="fill:var(--ic-a,#dce3f3);stroke:none"/>
  <path d="M18 6c1 7.5 3 9.5 10.5 10.5C21 17.5 19 19.5 18 27c-1-7.5-3-9.5-10.5-10.5C15 15.5 17 13.5 18 6z"/>
  <path d="M30 25v8M26 29h8" style="stroke:var(--ic-b,#7185bd)"/>
</symbol>
<symbol id="sun" viewBox="0 0 40 40">
  <circle cx="20" cy="20" r="6.5" style="fill:var(--ic-a,#dce3f3);stroke:none"/><circle cx="20" cy="20" r="6.5"/>
  <path d="M20 5v4M20 31v4M5 20h4M31 20h4M9.4 9.4l2.8 2.8M27.8 27.8l2.8 2.8M9.4 30.6l2.8-2.8M27.8 12.2l2.8-2.8" style="stroke:var(--ic-b,#7185bd)"/>
</symbol>
<symbol id="hand" viewBox="0 0 40 40">
  <path d="M14 21V11.5a2 2 0 0 1 4 0V9.5a2 2 0 0 1 4 0V11a2 2 0 0 1 4 0V15a2 2 0 0 1 4 0v8c0 6-4 10-9.5 10-4 0-6.5-2-8.5-5l-3.8-6a2 2 0 0 1 3.3-2.3z" style="fill:var(--ic-a,#dce3f3);stroke:none"/>
  <path d="M14 22V11.5a2 2 0 0 1 4 0V19M18 18V9.5a2 2 0 0 1 4 0V19M22 18.5V11a2 2 0 0 1 4 0v8.5M26 19.5V15a2 2 0 0 1 4 0v8c0 6-4 10-9.5 10-4 0-6.5-2-8.5-5l-3.8-6a2 2 0 0 1 3.3-2.3L14 22"/>
  <path d="M17.6 14.3h4.8" style="stroke:var(--ic-b,#7185bd);stroke-width:3"/>
</symbol>
<symbol id="dumbbell" viewBox="0 0 40 40">
  <rect x="10" y="12" width="5" height="16" rx="1.6" style="fill:var(--ic-a,#dce3f3);stroke:none"/><rect x="25" y="12" width="5" height="16" rx="1.6" style="fill:var(--ic-a,#dce3f3);stroke:none"/>
  <rect x="10" y="12" width="5" height="16" rx="1.6"/><rect x="25" y="12" width="5" height="16" rx="1.6"/>
  <rect x="5.5" y="15.5" width="4.5" height="9" rx="1.4"/><rect x="30" y="15.5" width="4.5" height="9" rx="1.4"/>
  <path d="M15 20h10"/>
</symbol>
<symbol id="moon" viewBox="0 0 40 40">
  <path d="M28 26A11 11 0 0 1 15.5 10a11 11 0 1 0 12.5 16z" style="fill:var(--ic-a,#dce3f3);stroke:none"/>
  <path d="M28 26A11 11 0 0 1 15.5 10a11 11 0 1 0 12.5 16z"/>
  <path d="M27 7v4M25 9h4M32.5 14.5v3M31 16h3" style="stroke:var(--ic-b,#7185bd)"/>
</symbol>

<!-- ============ TESTS ============ -->
<symbol id="tube" viewBox="0 0 40 40">
  <path d="M15 19h8v9a4 4 0 0 1-8 0z" style="fill:var(--ic-a,#dce3f3);stroke:none"/>
  <path d="M13.5 6h11M15 6v22a4 4 0 0 0 8 0V6"/>
  <path d="M30 13c1.8 2.4 2.8 3.9 2.8 5.4a2.8 2.8 0 0 1-5.6 0c0-1.5 1-3 2.8-5.4z" style="stroke:var(--ic-b,#7185bd)"/>
</symbol>
<symbol id="pot" viewBox="0 0 40 40">
  <path d="M11.5 15h17l-1.5 16.3A3 3 0 0 1 24 34h-8a3 3 0 0 1-3-2.7z" style="fill:var(--ic-a,#dce3f3);stroke:none"/>
  <path d="M11.5 15h17l-1.5 16.3A3 3 0 0 1 24 34h-8a3 3 0 0 1-3-2.7z"/>
  <rect x="9.5" y="9" width="21" height="6" rx="1.8"/><path d="M16 22h8M16 26.5h5" style="stroke:var(--ic-b,#7185bd)"/>
</symbol>
<symbol id="swab" viewBox="0 0 40 40">
  <path d="M8.5 31.5l14.5-14.5"/>
  <rect x="23" y="6" width="7.5" height="12" rx="3.75" transform="rotate(45 26.75 12)" style="fill:var(--ic-a,#dce3f3);stroke:none"/>
  <rect x="23" y="6" width="7.5" height="12" rx="3.75" transform="rotate(45 26.75 12)"/>
  <path d="M9 12.5v5M6.5 15h5" style="stroke:var(--ic-b,#7185bd)"/>
</symbol>
<symbol id="helix" viewBox="0 0 40 40">
  <path d="M15 8.5h10M16.5 16h7M16.5 24h7M15 31.5h10" style="stroke:var(--ic-b,#7185bd);stroke-width:2.4"/>
  <path d="M13 5c0 7.5 14 7.5 14 15s-14 7.5-14 15M27 5c0 7.5-14 7.5-14 15s14 7.5 14 15"/>
</symbol>
<symbol id="microbes" viewBox="0 0 40 40">
  <rect x="6" y="11" width="16" height="8" rx="4" transform="rotate(-25 14 15)" style="fill:var(--ic-a,#dce3f3);stroke:none"/>
  <rect x="6" y="11" width="16" height="8" rx="4" transform="rotate(-25 14 15)"/>
  <circle cx="26.5" cy="26" r="6" style="fill:var(--ic-a,#dce3f3);stroke:none"/><circle cx="26.5" cy="26" r="6"/>
  <circle cx="25" cy="24.5" r="1.1" style="fill:currentColor;stroke:none"/><circle cx="28.5" cy="27.5" r="1.1" style="fill:currentColor;stroke:none"/>
  <circle cx="11" cy="30" r="2.6" style="stroke:var(--ic-b,#7185bd)"/><circle cx="31" cy="10" r="2" style="stroke:var(--ic-b,#7185bd)"/>
</symbol>
<symbol id="layers" viewBox="0 0 40 40">
  <path d="M20 6.5l13 6.5-13 6.5L7 13z" style="fill:var(--ic-a,#dce3f3);stroke:none"/><path d="M20 6.5l13 6.5-13 6.5L7 13z"/>
  <path d="M7 19.5L20 26l13-6.5"/><path d="M7 26L20 32.5 33 26" style="stroke:var(--ic-b,#7185bd)"/>
</symbol>
<symbol id="lens-microbe" viewBox="0 0 40 40">
  <circle cx="17" cy="17" r="10" style="fill:var(--ic-a,#dce3f3);stroke:none"/><circle cx="17" cy="17" r="10"/>
  <path d="M24.2 24.2l8.5 8.5" style="stroke-width:2.6"/>
  <rect x="12" y="14.5" width="10" height="5" rx="2.5" transform="rotate(-30 17 17)" style="stroke:var(--ic-b,#7185bd)"/>
</symbol>
<symbol id="badge" viewBox="0 0 40 40">
  <path d="M15 22.5L12.5 34l7.5-3.5 7.5 3.5L25 22.5"/>
  <circle cx="20" cy="15.5" r="9" style="fill:var(--ic-a,#dce3f3);stroke:none"/><circle cx="20" cy="15.5" r="9"/>
  <path d="M16.2 15.6l2.6 2.6 5-5.2"/>
</symbol>
<symbol id="chromosome" viewBox="0 0 40 40">
  <rect x="16" y="4.5" width="8" height="31" rx="4" transform="rotate(-24 20 20)" style="fill:var(--ic-a,#dce3f3);stroke:none"/>
  <rect x="16" y="4.5" width="8" height="31" rx="4" transform="rotate(24 20 20)" style="fill:var(--ic-a,#dce3f3);stroke:none"/>
  <rect x="16" y="4.5" width="8" height="31" rx="4" transform="rotate(-24 20 20)"/>
  <rect x="16" y="4.5" width="8" height="31" rx="4" transform="rotate(24 20 20)"/>
  <path d="M11.5 11.5l3 1.2M28.5 11.5l-3 1.2M11.5 28.5l3-1.2M28.5 28.5l-3-1.2" style="stroke:var(--ic-b,#7185bd)"/>
</symbol>
<symbol id="gut" viewBox="0 0 40 40">
  <path d="M11 8.5h17a4.8 4.8 0 0 1 0 9.6H13a4.8 4.8 0 0 0 0 9.6h16.5V34" style="stroke:var(--ic-a,#dce3f3);stroke-width:6"/>
  <path d="M11 8.5h17a4.8 4.8 0 0 1 0 9.6H13a4.8 4.8 0 0 0 0 9.6h16.5V34"/>
  <circle cx="18" cy="8.5" r="1" style="fill:currentColor;stroke:none"/><circle cx="22" cy="18.1" r="1" style="fill:currentColor;stroke:none"/><circle cx="17" cy="27.7" r="1" style="fill:currentColor;stroke:none"/>
</symbol>
<symbol id="family" viewBox="0 0 40 40">
  <circle cx="11" cy="10.5" r="3.8"/><circle cx="29" cy="10.5" r="3.8"/>
  <path d="M14.8 10.5h10.4M20 10.5V20"/>
  <circle cx="20" cy="24.5" r="4.5" style="fill:var(--ic-a,#dce3f3);stroke:none"/><circle cx="20" cy="24.5" r="4.5"/>
  <path d="M13 34.5c.8-2.3 3.8-3.8 7-3.8s6.2 1.5 7 3.8" style="stroke:var(--ic-b,#7185bd)"/>
</symbol>
<symbol id="baby" viewBox="0 0 40 40">
  <circle cx="20" cy="21" r="11" style="fill:var(--ic-a,#dce3f3);stroke:none"/><circle cx="20" cy="21" r="11"/>
  <path d="M19 10c-.4-2.4 1.8-3.6 3.4-2.3"/>
  <circle cx="16" cy="20" r="1.2" style="fill:currentColor;stroke:none"/><circle cx="24" cy="20" r="1.2" style="fill:currentColor;stroke:none"/>
  <path d="M16.5 25c2 1.7 5 1.7 7 0" style="stroke:var(--ic-b,#7185bd)"/>
</symbol>
<symbol id="runner" viewBox="0 0 40 40">
  <circle cx="25" cy="7.5" r="3.4" style="fill:var(--ic-a,#dce3f3);stroke:none"/><circle cx="25" cy="7.5" r="3.4"/>
  <path d="M22.5 13.5L18 22l5.5 4.5L21 35M18 22l-7 1.5M22.5 13.5l6.5 4.5 4-2"/>
  <path d="M23.5 26.5l6.5 1.5M5 15h7M7 19.5h4" style="stroke:var(--ic-b,#7185bd)"/>
</symbol>
<symbol id="tooth" viewBox="0 0 40 40">
  <path d="M14 7c-4 0-6 3-6 7 0 5 2 7 3 12 .6 3 1.5 7 3.5 7s2.2-4 3-7c.6-2 1.4-3 2.5-3s1.9 1 2.5 3c.8 3 1 7 3 7s2.9-4 3.5-7c1-5 3-7 3-12 0-4-2-7-6-7-2.5 0-3.5 1.4-6 1.4S16.5 7 14 7z" style="fill:var(--ic-a,#dce3f3);stroke:none"/>
  <path d="M14 7c-4 0-6 3-6 7 0 5 2 7 3 12 .6 3 1.5 7 3.5 7s2.2-4 3-7c.6-2 1.4-3 2.5-3s1.9 1 2.5 3c.8 3 1 7 3 7s2.9-4 3.5-7c1-5 3-7 3-12 0-4-2-7-6-7-2.5 0-3.5 1.4-6 1.4S16.5 7 14 7z"/>
  <path d="M12.5 13a3.5 3.5 0 0 1 3-2.5" style="stroke:var(--ic-b,#7185bd)"/>
</symbol>
<symbol id="dots" viewBox="0 0 40 40">
  <circle cx="10" cy="10" r="2" style="fill:currentColor;stroke:none"/><circle cx="20" cy="10" r="2" style="fill:currentColor;stroke:none"/><circle cx="30" cy="10" r="2" style="fill:currentColor;stroke:none"/>
  <circle cx="10" cy="20" r="2" style="fill:currentColor;stroke:none"/><circle cx="20" cy="20" r="4.4" style="fill:var(--ic-a,#dce3f3);stroke:none"/><circle cx="20" cy="20" r="4.4"/><circle cx="30" cy="20" r="2" style="fill:currentColor;stroke:none"/>
  <circle cx="10" cy="30" r="2" style="fill:currentColor;stroke:none"/><circle cx="20" cy="30" r="2" style="fill:currentColor;stroke:none"/><circle cx="30" cy="30" r="2" style="fill:currentColor;stroke:none"/>
</symbol>
<symbol id="list" viewBox="0 0 40 40">
  <rect x="5" y="6" width="30" height="28" rx="4" style="fill:var(--ic-a,#dce3f3);stroke:none"/>
  <path d="M18 13h12M18 20h12M18 27h8"/>
  <path d="M10 13l1.8 1.8 3.2-3.3M10 20l1.8 1.8 3.2-3.3M10 27l1.8 1.8 3.2-3.3" style="stroke:var(--ic-b,#7185bd)"/>
</symbol>
<symbol id="body" viewBox="0 0 40 40">
  <circle cx="20" cy="8" r="3.8"/>
  <path d="M12.5 15h15l-2 10.5H23V35h-6v-9.5h-2.5z" style="fill:var(--ic-a,#dce3f3);stroke:none"/>
  <path d="M12.5 15h15l-2 10.5H23V35h-6v-9.5h-2.5z"/>
  <path d="M20 18v5M17.5 20.5h5" style="stroke:var(--ic-b,#7185bd)"/>
</symbol>
<symbol id="radar" viewBox="0 0 40 40">
  <path d="M20 5l13 7.5v15L20 35 7 27.5v-15z"/>
  <path d="M20 10.5l9 6-2.5 9.5-6.5 4-7.5-5.5 1.5-8.5z" style="fill:var(--ic-a,#dce3f3);stroke:none"/>
  <path d="M20 10.5l9 6-2.5 9.5-6.5 4-7.5-5.5 1.5-8.5z" style="stroke:var(--ic-b,#7185bd)"/>
  <path d="M20 20V5M20 20l13 7.5M20 20L7 27.5" style="stroke-width:1"/>
</symbol>
<symbol id="petri" viewBox="0 0 40 40">
  <circle cx="20" cy="20" r="12.5" style="fill:var(--ic-a,#dce3f3);stroke:none"/><circle cx="20" cy="20" r="14"/><circle cx="20" cy="20" r="12.5" style="stroke-width:1"/>
  <circle cx="15" cy="15" r="2.2" style="fill:currentColor;stroke:none"/><circle cx="24.5" cy="13.5" r="1.3" style="fill:currentColor;stroke:none"/><circle cx="26" cy="23" r="2.6" style="fill:currentColor;stroke:none"/>
  <circle cx="16.5" cy="25.5" r="1.5" style="fill:currentColor;stroke:none"/><circle cx="20.5" cy="19.5" r="1" style="fill:currentColor;stroke:none"/>
</symbol>
<symbol id="report" viewBox="0 0 40 40">
  <path d="M10 5h14l7 7v23H10z" style="fill:var(--ic-a,#dce3f3);stroke:none"/><path d="M10 5h14l7 7v23H10z"/><path d="M24 5v7h7"/>
  <path d="M14.5 18h12M14.5 23h12M14.5 28h7" style="stroke:var(--ic-b,#7185bd)"/>
</symbol>
<symbol id="reanalysis" viewBox="0 0 40 40">
  <path d="M20 20c-3-4-5-6.5-8.5-6.5a6.5 6.5 0 0 0 0 13c3.5 0 5.5-2.5 8.5-6.5s5-6.5 8.5-6.5a6.5 6.5 0 0 1 0 13c-3.5 0-5.5-2.5-8.5-6.5z" style="stroke:var(--ic-a,#dce3f3);stroke-width:5"/>
  <path d="M20 20c-3-4-5-6.5-8.5-6.5a6.5 6.5 0 0 0 0 13c3.5 0 5.5-2.5 8.5-6.5s5-6.5 8.5-6.5a6.5 6.5 0 0 1 0 13c-3.5 0-5.5-2.5-8.5-6.5z"/>
</symbol>
<symbol id="book" viewBox="0 0 40 40">
  <path d="M20 11c-3-2-7-3-12.5-3v22c5.5 0 9.5 1 12.5 3 3-2 7-3 12.5-3V8C27 8 23 9 20 11z" style="fill:var(--ic-a,#dce3f3);stroke:none"/>
  <path d="M20 11c-3-2-7-3-12.5-3v22c5.5 0 9.5 1 12.5 3 3-2 7-3 12.5-3V8C27 8 23 9 20 11zM20 11v22"/>
  <path d="M11 14c2.6.1 4.7.6 6 1.3M11 19c2.6.1 4.7.6 6 1.3M29 14c-2.6.1-4.7.6-6 1.3" style="stroke:var(--ic-b,#7185bd)"/>
</symbol>
<symbol id="couple" viewBox="0 0 40 40">
  <circle cx="15" cy="20" r="8" style="fill:var(--ic-a,#dce3f3);stroke:none"/>
  <circle cx="15" cy="20" r="8"/><circle cx="25" cy="20" r="8"/>
  <path d="M28 7.5c-1.3-1.3-3.5-.3-3.1 1.6.4 1.6 2.3 2.7 3.1 3.1.8-.4 2.7-1.5 3.1-3.1.4-1.9-1.8-2.9-3.1-1.6z" style="stroke:var(--ic-b,#7185bd)"/>
</symbol>
<symbol id="clipboard" viewBox="0 0 40 40">
  <rect x="10" y="8" width="20" height="27" rx="3" style="fill:var(--ic-a,#dce3f3);stroke:none"/><rect x="10" y="8" width="20" height="27" rx="3"/>
  <rect x="15" y="5" width="10" height="6" rx="2"/>
  <path d="M15 19l2 2 3.5-3.5M23 19.5h3M15 27l2 2 3.5-3.5M23 27.5h3" style="stroke:var(--ic-b,#7185bd)"/>
</symbol>
<symbol id="chat" viewBox="0 0 40 40">
  <path d="M6 10a3 3 0 0 1 3-3h15a3 3 0 0 1 3 3v9a3 3 0 0 1-3 3h-8l-5.5 4.5V22H9a3 3 0 0 1-3-3z" style="fill:var(--ic-a,#dce3f3);stroke:none"/>
  <path d="M6 10a3 3 0 0 1 3-3h15a3 3 0 0 1 3 3v9a3 3 0 0 1-3 3h-8l-5.5 4.5V22H9a3 3 0 0 1-3-3z"/>
  <path d="M27 14h4a3 3 0 0 1 3 3v8a3 3 0 0 1-3 3h-1v4.5L24.5 28H20a3 3 0 0 1-3-3v-1" style="stroke:var(--ic-b,#7185bd)"/>
</symbol>
<symbol id="apple" viewBox="0 0 40 40">
  <path d="M20 13c-2-1.5-4-2-6-2-4 0-6.5 3.5-6.5 8 0 7 5 14 9 14 1.5 0 2.3-.8 3.5-.8s2 .8 3.5.8c4 0 9-7 9-14 0-4.5-2.5-8-6.5-8-2 0-4 .5-6 2z" style="fill:var(--ic-a,#dce3f3);stroke:none"/>
  <path d="M20 13c-2-1.5-4-2-6-2-4 0-6.5 3.5-6.5 8 0 7 5 14 9 14 1.5 0 2.3-.8 3.5-.8s2 .8 3.5.8c4 0 9-7 9-14 0-4.5-2.5-8-6.5-8-2 0-4 .5-6 2z"/>
  <path d="M20 13c0-3 1.5-5.5 4.5-7"/><path d="M12 19a4.5 4.5 0 0 1 3-4" style="stroke:var(--ic-b,#7185bd)"/>
</symbol>
<symbol id="stopwatch" viewBox="0 0 40 40">
  <circle cx="20" cy="22" r="11.5" style="fill:var(--ic-a,#dce3f3);stroke:none"/><circle cx="20" cy="22" r="11.5"/>
  <path d="M16.5 5.5h7M20 5.5v5M29.5 11.5l2 2"/><path d="M20 22l5.5-5.5" style="stroke:var(--ic-b,#7185bd)"/><circle cx="20" cy="22" r="1.6" style="fill:currentColor;stroke:none"/>
</symbol>
<symbol id="person" viewBox="0 0 40 40">
  <circle cx="20" cy="12.5" r="5.5" style="fill:var(--ic-a,#dce3f3);stroke:none"/><circle cx="20" cy="12.5" r="5.5"/>
  <path d="M9 33.5c1-6.8 5.2-10.5 11-10.5s10 3.7 11 10.5"/>
</symbol>
<symbol id="tag" viewBox="0 0 40 40">
  <path d="M21 6h11a2 2 0 0 1 2 2v11L19.5 33.5 6.5 20.5z" style="fill:var(--ic-a,#dce3f3);stroke:none"/>
  <path d="M21 6h11a2 2 0 0 1 2 2v11L19.5 33.5 6.5 20.5z"/><circle cx="27.5" cy="12.5" r="2.3"/>
</symbol>
<symbol id="repeat" viewBox="0 0 40 40">
  <circle cx="20" cy="20" r="6" style="fill:var(--ic-a,#dce3f3);stroke:none"/>
  <path d="M31.5 17a12 12 0 0 0-21.8-4.5M8.5 23a12 12 0 0 0 21.8 4.5"/>
  <path d="M9 6.5v6.5h6.5M31 33.5V27h-6.5"/>
  <path d="M17.5 20l1.8 1.8 3.2-3.3" style="stroke:var(--ic-b,#7185bd)"/>
</symbol>
<symbol id="two-kits" viewBox="0 0 40 40">
  <path d="M4 17l8-4 8 4-8 4z" style="fill:var(--ic-a,#dce3f3);stroke:none"/><path d="M20 17l8-4 8 4-8 4z" style="fill:var(--ic-a,#dce3f3);stroke:none"/>
  <path d="M4 17l8-4 8 4v9l-8 4-8-4zM4 17l8 4 8-4M12 21v9"/>
  <path d="M20 17l8-4 8 4v9l-8 4-8-4M20 17l8 4 8-4M28 21v9"/>
  <path d="M20 5.5c-1-1-2.8-.3-2.5 1.2.3 1.3 1.8 2.1 2.5 2.5.7-.4 2.2-1.2 2.5-2.5.3-1.5-1.5-2.2-2.5-1.2z" style="stroke:var(--ic-b,#7185bd)"/>
</symbol>
<symbol id="whole" viewBox="0 0 40 40">
  <circle cx="20" cy="20" r="13" style="fill:var(--ic-a,#dce3f3);stroke:none"/><circle cx="20" cy="20" r="13"/>
  <path d="M20 7v26M7 20h26"/><path d="M20 7a13 13 0 0 1 13 13H20z" style="stroke:var(--ic-b,#7185bd);fill:var(--ic-b,#7185bd);stroke:none;opacity:.35"/>
</symbol>
<symbol id="leaf" viewBox="0 0 40 40">
  <path d="M8 32C8 17 17 8 32 8c0 15-9 24-24 24z" style="fill:var(--ic-a,#dce3f3);stroke:none"/>
  <path d="M8 32C8 17 17 8 32 8c0 15-9 24-24 24z"/><path d="M8 32L25 15M16 24h6M20 20v-5" style="stroke:var(--ic-b,#7185bd)"/>
</symbol>
<symbol id="home-heart" viewBox="0 0 40 40">
  <path d="M7 19L20 8l13 11v15H7z" style="fill:var(--ic-a,#dce3f3);stroke:none"/><path d="M7 19L20 8l13 11v15H7z"/><path d="M4.5 21L20 8l15.5 13"/>
  <path d="M20 30c-3.8-2.4-5.8-4.4-5.8-6.8a2.9 2.9 0 0 1 5.8-1 2.9 2.9 0 0 1 5.8 1c0 2.4-2 4.4-5.8 6.8z" style="stroke:var(--ic-b,#7185bd)"/>
</symbol>
<symbol id="bottle" viewBox="0 0 40 40">
  <path d="M15.5 14h9v16.5a3.5 3.5 0 0 1-3.5 3.5h-2a3.5 3.5 0 0 1-3.5-3.5z" style="fill:var(--ic-a,#dce3f3);stroke:none"/>
  <path d="M15.5 14h9v16.5a3.5 3.5 0 0 1-3.5 3.5h-2a3.5 3.5 0 0 1-3.5-3.5zM14 14h12M17.5 14v-3a2.5 2.5 0 0 1 5 0v3M20 8.5V6"/>
  <path d="M15.5 20h3.5M15.5 24.5h3.5M15.5 29h3.5" style="stroke:var(--ic-b,#7185bd)"/>
</symbol>
<symbol id="heart" viewBox="0 0 40 40">
  <path d="M20 32C11 26 7 21 7 15.5A6.5 6.5 0 0 1 20 12a6.5 6.5 0 0 1 13 3.5C33 21 29 26 20 32z" style="fill:var(--ic-a,#dce3f3);stroke:none"/>
  <path d="M20 32C11 26 7 21 7 15.5A6.5 6.5 0 0 1 20 12a6.5 6.5 0 0 1 13 3.5C33 21 29 26 20 32z"/>
  <path d="M10.5 19.5h5l2-3.5 3 7 2-3.5h7" style="stroke:var(--ic-b,#7185bd)"/>
</symbol>
</svg>
